<?xml version="1.0" encoding="UTF-8"?>
<svg xmlns="http://www.w3.org/2000/svg" xmlns:xlink="http://www.w3.org/1999/xlink" width="32pt" height="32pt" viewBox="0 0 32 32" version="1.1">
<g id="surface1">
<path style=" stroke:none;fill-rule:nonzero;fill:rgb(45.098039%,75.686275%,86.666667%);fill-opacity:1;" d="M 4.535156 11.15625 L 4.535156 31.363281 L 10.136719 31.363281 L 10.136719 25.6875 L 21.863281 25.6875 L 21.863281 31.363281 L 27.464844 31.363281 L 27.464844 11.15625 Z M 4.535156 11.15625 "/>
<path style=" stroke:none;fill-rule:nonzero;fill:rgb(45.098039%,75.686275%,86.666667%);fill-opacity:1;" d="M 22.625 0.636719 L 9.375 0.636719 C 6.699219 0.636719 4.535156 2.804688 4.535156 5.476562 L 4.535156 11.15625 L 27.464844 11.15625 L 27.464844 5.476562 C 27.464844 2.804688 25.300781 0.636719 22.625 0.636719 Z M 22.625 0.636719 "/>
<path style=" stroke:none;fill-rule:nonzero;fill:rgb(100%,67.843137%,38.039216%);fill-opacity:1;" d="M 9.945312 3.507812 L 22.054688 3.507812 L 22.054688 8.476562 L 9.945312 8.476562 Z M 9.945312 3.507812 "/>
<path style=" stroke:none;fill-rule:nonzero;fill:rgb(94.901961%,94.901961%,94.901961%);fill-opacity:1;" d="M 9.945312 14.851562 L 22.054688 14.851562 L 22.054688 21.863281 L 9.945312 21.863281 Z M 9.945312 14.851562 "/>
<path style=" stroke:none;fill-rule:nonzero;fill:rgb(30.196078%,23.921569%,21.176471%);fill-opacity:1;" d="M 3.894531 31.363281 C 3.894531 31.714844 4.179688 32 4.535156 32 L 10.136719 32 C 10.488281 32 10.773438 31.714844 10.773438 31.363281 L 10.773438 26.328125 L 21.226562 26.328125 L 21.226562 31.363281 C 21.226562 31.714844 21.511719 32 21.863281 32 L 27.464844 32 C 27.820312 32 28.105469 31.714844 28.105469 31.363281 L 28.105469 5.476562 C 28.105469 2.457031 25.644531 0 22.625 0 L 9.375 0 C 6.355469 0 3.894531 2.457031 3.894531 5.476562 Z M 5.171875 5.476562 C 5.171875 3.160156 7.054688 1.273438 9.375 1.273438 L 22.625 1.273438 C 24.945312 1.273438 26.828125 3.160156 26.828125 5.476562 L 26.828125 10.519531 L 5.171875 10.519531 Z M 26.828125 30.726562 L 22.503906 30.726562 L 22.503906 25.6875 C 22.503906 25.335938 22.214844 25.050781 21.863281 25.050781 L 10.136719 25.050781 C 9.785156 25.050781 9.496094 25.335938 9.496094 25.6875 L 9.496094 30.726562 L 5.171875 30.726562 L 5.171875 11.792969 L 26.828125 11.792969 Z M 26.828125 30.726562 "/>
<path style=" stroke:none;fill-rule:nonzero;fill:rgb(30.196078%,23.921569%,21.176471%);fill-opacity:1;" d="M 22.054688 2.867188 L 9.945312 2.867188 C 9.59375 2.867188 9.308594 3.152344 9.308594 3.507812 L 9.308594 8.476562 C 9.308594 8.828125 9.59375 9.117188 9.945312 9.117188 L 22.054688 9.117188 C 22.40625 9.117188 22.691406 8.828125 22.691406 8.476562 L 22.691406 3.507812 C 22.691406 3.152344 22.40625 2.867188 22.054688 2.867188 Z M 21.417969 7.839844 L 10.582031 7.839844 L 10.582031 4.144531 L 21.417969 4.144531 Z M 21.417969 7.839844 "/>
<path style=" stroke:none;fill-rule:nonzero;fill:rgb(30.196078%,23.921569%,21.176471%);fill-opacity:1;" d="M 19.378906 6.628906 L 19.570312 6.628906 C 19.921875 6.628906 20.207031 6.34375 20.207031 5.992188 C 20.207031 5.640625 19.921875 5.355469 19.570312 5.355469 L 19.378906 5.355469 C 19.027344 5.355469 18.742188 5.640625 18.742188 5.992188 C 18.742188 6.34375 19.027344 6.628906 19.378906 6.628906 Z M 19.378906 6.628906 "/>
<path style=" stroke:none;fill-rule:nonzero;fill:rgb(30.196078%,23.921569%,21.176471%);fill-opacity:1;" d="M 12.429688 6.628906 L 17.273438 6.628906 C 17.625 6.628906 17.914062 6.34375 17.914062 5.992188 C 17.914062 5.640625 17.625 5.355469 17.273438 5.355469 L 12.429688 5.355469 C 12.078125 5.355469 11.792969 5.640625 11.792969 5.992188 C 11.792969 6.34375 12.078125 6.628906 12.429688 6.628906 Z M 12.429688 6.628906 "/>
<path style=" stroke:none;fill-rule:nonzero;fill:rgb(30.196078%,23.921569%,21.176471%);fill-opacity:1;" d="M 9.945312 22.503906 L 22.054688 22.503906 C 22.40625 22.503906 22.691406 22.214844 22.691406 21.863281 L 22.691406 14.851562 C 22.691406 14.5 22.40625 14.214844 22.054688 14.214844 L 9.945312 14.214844 C 9.59375 14.214844 9.308594 14.5 9.308594 14.851562 L 9.308594 21.863281 C 9.308594 22.214844 9.59375 22.503906 9.945312 22.503906 Z M 10.582031 21.226562 L 10.582031 16.195312 L 15.699219 18.921875 C 15.792969 18.972656 15.898438 18.996094 16 18.996094 C 16.101562 18.996094 16.207031 18.972656 16.300781 18.921875 L 21.417969 16.195312 L 21.417969 21.226562 Z M 11.96875 15.488281 L 20.03125 15.488281 L 16 17.636719 Z M 11.96875 15.488281 "/>
</g>
</svg>
